<?xml version="1.0" encoding="UTF-8" standalone="no"?>
<!DOCTYPE svg PUBLIC "-//W3C//DTD SVG 1.1//EN" "http://www.w3.org/Graphics/SVG/1.1/DTD/svg11.dtd">
<svg version="1.1" xmlns="http://www.w3.org/2000/svg" xmlns:xlink="http://www.w3.org/1999/xlink" preserveAspectRatio="xMidYMid meet" viewBox="0 0 640 640" width="640" height="640"><defs><path d="M67.49 65.92L589.28 65.92L589.28 512.27L67.49 512.27L67.49 65.92Z" id="b1FWnfatzi"></path><path d="M109.4 282.8L553.65 282.8L553.65 289.09L109.4 289.09L109.4 282.8Z" id="a1WxwMrZ40"></path><path d="M109.4 289.09L116.73 289.09L116.73 386.53L109.4 386.53L109.4 289.09Z" id="a7PEeSYly"></path><path d="M161.88 289.09L169.21 289.09L169.21 386.53L161.88 386.53L161.88 289.09Z" id="c1Nz6QNlc6"></path><path d="M212.27 289.09L219.6 289.09L219.6 386.53L212.27 386.53L212.27 289.09Z" id="h5MDpzfqW"></path><path d="M265.79 289.09L273.13 289.09L273.13 386.53L265.79 386.53L265.79 289.09Z" id="cPIop8LNH"></path><path d="M312.67 289.09L320 289.09L320 386.53L312.67 386.53L312.67 289.09Z" id="d1PoQRuAIT"></path><path d="M358.86 289.09L366.19 289.09L366.19 386.53L358.86 386.53L358.86 289.09Z" id="e2tPykx1Hg"></path><path d="M408.2 289.09L415.53 289.09L415.53 386.53L408.2 386.53L408.2 289.09Z" id="b6iZd7bY"></path><path d="M456.49 289.09L463.82 289.09L463.82 386.53L456.49 386.53L456.49 289.09Z" id="b3BPpcTlag"></path><path d="M501.63 289.09L508.97 289.09L508.97 386.53L501.63 386.53L501.63 289.09Z" id="bjfIdjQv7"></path><path d="M546.32 289.09L553.65 289.09L553.65 386.53L546.32 386.53L546.32 289.09Z" id="aflqVkYNI"></path><path d="M149.21 337.81C149.21 343.02 145.22 347.24 140.31 347.24C135.39 347.24 131.4 343.02 131.4 337.81C131.4 332.61 135.39 328.38 140.31 328.38C145.22 328.38 149.21 332.61 149.21 337.81Z" id="h7DIVzBZD"></path><path d="M200.65 337.81C200.65 343.02 196.66 347.24 191.74 347.24C186.83 347.24 182.84 343.02 182.84 337.81C182.84 332.61 186.83 328.38 191.74 328.38C196.66 328.38 200.65 332.61 200.65 337.81Z" id="b1x3Na6Ae9"></path><path d="M252.08 337.81C252.08 343.02 248.09 347.24 243.17 347.24C238.26 347.24 234.27 343.02 234.27 337.81C234.27 332.61 238.26 328.38 243.17 328.38C248.09 328.38 252.08 332.61 252.08 337.81Z" id="c4r3H0Uf50"></path><path d="M302.47 337.81C302.47 343.02 298.47 347.24 293.56 347.24C288.64 347.24 284.65 343.02 284.65 337.81C284.65 332.61 288.64 328.38 293.56 328.38C298.47 328.38 302.47 332.61 302.47 337.81Z" id="atZJoFLVc"></path><path d="M349.34 337.81C349.34 343.02 345.35 347.24 340.43 347.24C335.52 347.24 331.53 343.02 331.53 337.81C331.53 332.61 335.52 328.38 340.43 328.38C345.35 328.38 349.34 332.61 349.34 337.81Z" id="a1Bqv3NPQs"></path><path d="M393.44 337.81C393.44 343.02 389.45 347.24 384.53 347.24C379.61 347.24 375.62 343.02 375.62 337.81C375.62 332.61 379.61 328.38 384.53 328.38C389.45 328.38 393.44 332.61 393.44 337.81Z" id="b6uIJBMnXx"></path><path d="M441.73 337.81C441.73 343.02 437.74 347.24 432.82 347.24C427.9 347.24 423.91 343.02 423.91 337.81C423.91 332.61 427.9 328.38 432.82 328.38C437.74 328.38 441.73 332.61 441.73 337.81Z" id="e14W5ZOj1e"></path><path d="M490.02 337.81C490.02 343.02 486.02 347.24 481.11 347.24C476.19 347.24 472.2 343.02 472.2 337.81C472.2 332.61 476.19 328.38 481.11 328.38C486.02 328.38 490.02 332.61 490.02 337.81Z" id="e3ymE7TpPJ"></path><path d="M536.21 337.81C536.21 343.02 532.22 347.24 527.3 347.24C522.39 347.24 518.4 343.02 518.4 337.81C518.4 332.61 522.39 328.38 527.3 328.38C532.22 328.38 536.21 332.61 536.21 337.81Z" id="d338QT2sv"></path></defs><g><g><g><use xlink:href="#b1FWnfatzi" opacity="0.5" fill="#999999" fill-opacity="1"></use></g><g><use xlink:href="#a1WxwMrZ40" opacity="1" fill="#dbbc1a" fill-opacity="1"></use></g><g><use xlink:href="#a7PEeSYly" opacity="1" fill="#e9e421" fill-opacity="1"></use></g><g><use xlink:href="#c1Nz6QNlc6" opacity="1" fill="#e9e421" fill-opacity="1"></use></g><g><use xlink:href="#h5MDpzfqW" opacity="1" fill="#e9e421" fill-opacity="1"></use></g><g><use xlink:href="#cPIop8LNH" opacity="1" fill="#e9e421" fill-opacity="1"></use></g><g><use xlink:href="#d1PoQRuAIT" opacity="1" fill="#e9e421" fill-opacity="1"></use></g><g><use xlink:href="#e2tPykx1Hg" opacity="1" fill="#e9e421" fill-opacity="1"></use></g><g><use xlink:href="#b6iZd7bY" opacity="1" fill="#e9e421" fill-opacity="1"></use></g><g><use xlink:href="#b3BPpcTlag" opacity="1" fill="#e9e421" fill-opacity="1"></use></g><g><use xlink:href="#bjfIdjQv7" opacity="1" fill="#e9e421" fill-opacity="1"></use></g><g><use xlink:href="#aflqVkYNI" opacity="1" fill="#e9e421" fill-opacity="1"></use></g><g><use xlink:href="#h7DIVzBZD" opacity="1" fill="#ffffff" fill-opacity="1"></use></g><g><use xlink:href="#b1x3Na6Ae9" opacity="1" fill="#ffffff" fill-opacity="1"></use></g><g><use xlink:href="#c4r3H0Uf50" opacity="1" fill="#ffffff" fill-opacity="1"></use></g><g><use xlink:href="#atZJoFLVc" opacity="1" fill="#ffffff" fill-opacity="1"></use></g><g><use xlink:href="#a1Bqv3NPQs" opacity="1" fill="#ffffff" fill-opacity="1"></use></g><g><use xlink:href="#b6uIJBMnXx" opacity="1" fill="#ffffff" fill-opacity="1"></use></g><g><use xlink:href="#e14W5ZOj1e" opacity="1" fill="#ffffff" fill-opacity="1"></use></g><g><use xlink:href="#e3ymE7TpPJ" opacity="1" fill="#ffffff" fill-opacity="1"></use></g><g><use xlink:href="#d338QT2sv" opacity="1" fill="#ffffff" fill-opacity="1"></use></g></g></g></svg>